<?xml version="1.0" standalone="no"?>
<!DOCTYPE svg PUBLIC "-//W3C//DTD SVG 20010904//EN"
 "http://www.w3.org/TR/2001/REC-SVG-20010904/DTD/svg10.dtd">
<svg version="1.0" xmlns="http://www.w3.org/2000/svg"
 width="512.000000pt" height="512.000000pt" viewBox="0 0 512.000000 512.000000"
 preserveAspectRatio="xMidYMid meet">

<g transform="translate(0.000000,512.000000) scale(0.100000,-0.100000)"
fill="#000000" stroke="none">
<path d="M2410 4849 c-423 -48 -808 -223 -1056 -480 -60 -62 -303 -365 -362
-452 -123 -179 -169 -379 -216 -937 l-15 -175 87 -775 87 -775 54 -3 54 -3 -7
33 c-49 237 -70 461 -63 648 8 176 21 241 82 394 64 161 74 217 85 470 11 255
23 309 75 354 66 59 117 55 392 -33 280 -89 377 -110 567 -124 297 -22 590 38
895 184 62 30 119 55 126 55 17 0 337 -149 461 -215 138 -72 183 -104 190
-130 3 -13 -8 -61 -25 -113 -56 -163 -42 -213 104 -378 115 -130 163 -210 194
-324 38 -141 44 -228 39 -532 l-5 -289 31 3 31 3 27 300 c57 641 102 1288 114
1620 8 229 -4 338 -52 484 -131 397 -436 693 -786 765 -42 9 -96 16 -120 16
-43 1 -43 1 -88 76 -97 163 -274 292 -452 328 -84 17 -316 20 -448 5z"/>
<path d="M2085 996 c-38 -13 -114 -42 -168 -65 -155 -64 -244 -85 -372 -85
-93 -1 -117 3 -159 22 -26 12 -52 19 -57 16 -24 -15 123 -234 241 -357 173
-183 343 -267 535 -267 154 0 274 48 396 158 l59 54 59 -54 c122 -110 242
-158 396 -158 192 0 360 83 535 266 114 120 265 343 242 358 -6 3 -31 -4 -57
-15 -127 -56 -316 -30 -580 81 -144 61 -196 73 -294 68 -67 -3 -97 -10 -136
-30 -47 -24 -127 -98 -153 -143 -12 -20 -12 -20 -24 0 -26 44 -106 119 -153
143 -74 38 -212 42 -310 8z"/>
</g>
</svg>
