<svg width="194" height="109" viewBox="0 0 194 109" fill="none" xmlns="http://www.w3.org/2000/svg">
<path d="M192.542 82.2076C192.348 81.5167 192.209 81.2585 191.811 80.905C191.227 80.3683 190.24 79.986 188.813 79.7462C187.227 79.4839 182.371 79.6894 179.31 80.1419C174.437 80.8679 173.029 81.0614 169.55 81.4702C149.902 83.7572 128.946 83.8455 101.236 81.7634C88.179 80.7729 80.2102 79.5116 58.6245 74.9885C42.8228 71.6713 36.426 70.5114 27.0831 69.2573C20.9118 68.4287 19.6097 68.3234 15.8927 68.3765C12.9363 68.4186 12.3358 68.4644 11.0511 68.718C7.95573 69.3444 5.9575 70.3267 4.27691 72.0724C3.36993 73.002 3.15354 73.3148 2.62985 74.4495C1.89154 76.0208 1.59043 77.2761 1.42331 79.3224C0.976896 85.0144 3.5111 92.3609 7.50252 96.9243C9.11168 98.7718 11.294 100.376 13.2562 101.165C18.1556 103.152 39.0012 105.679 60.1221 106.864C76.6629 107.805 92.7483 107.786 105.704 106.845C129.715 105.078 160.731 99.7306 177.685 94.4101C185.381 92.0087 191.113 88.694 192.41 85.9131C192.851 84.9531 192.904 83.503 192.542 82.2076ZM182.762 88.1813C182.189 89.3291 181.18 89.9752 179.941 89.9929C178.211 90.0052 176.88 88.6988 176.842 86.9404C176.817 85.157 178.111 83.8255 179.914 83.7998C181.3 83.78 182.441 84.6061 182.902 85.9868C183.056 86.443 182.977 87.7447 182.762 88.1813ZM174.113 91.7359C156.829 96.3179 135.362 100.068 116.062 101.867C102.302 103.141 88.0843 103.38 71.4112 102.627C56.4077 101.937 41.5414 100.539 29.6748 98.7014C26.1577 98.1446 22.0731 97.373 22.0714 97.2491C22.0705 97.1872 22.3088 96.6883 22.3689 96.6008C22.3931 96.5756 23.2786 96.724 24.3487 96.907C35.5181 98.903 58.5884 100.841 77.2214 101.368C90.9934 101.741 104.572 101.448 115.491 100.512C134.081 98.9216 156.438 95.5183 172.495 91.8333C175.724 91.0936 175.479 91.1342 175.481 91.2705C175.482 91.32 174.859 91.5271 174.113 91.7359ZM14.6573 93.5892C14.549 93.7394 14.3257 93.5692 13.4417 92.6652C12.844 92.0543 11.9707 91.0387 11.5076 90.4012C10.4063 88.8933 8.8412 85.8312 8.17557 83.896C7.62547 82.3183 7.17138 80.5906 7.25584 80.4903C7.29229 80.465 7.39466 80.7608 7.48601 81.1435C7.77391 82.4029 8.64023 84.6449 9.39835 86.1825C10.4971 88.3717 11.9247 90.3952 13.456 91.9465C14.1781 92.6794 14.7637 93.3028 14.7642 93.34C14.777 93.377 14.7172 93.4893 14.6573 93.5892Z" fill="#C79B00"/>
<path d="M181.309 86.0593C180.957 85.5069 180.573 85.277 179.96 85.2858C178.93 85.3005 178.301 85.9288 178.315 86.9196C178.328 87.8855 178.988 88.5203 179.945 88.5066C180.558 88.4979 180.947 88.2693 181.284 87.7567C181.62 87.2316 181.635 86.5749 181.309 86.0593Z" fill="#C79B00"/>
<path d="M176.037 75.2086C172.877 72.1198 169.695 69.2666 166.542 66.698C159.913 61.2927 155.987 58.735 134.081 45.5457C122.287 38.4551 121.247 37.8134 112.677 32.2748C106.882 28.5423 103.662 26.4948 89.8938 17.7602C85.4983 14.9739 80.3227 11.6908 78.3787 10.4551C76.4472 9.23154 73.8209 7.47288 72.5562 6.54951C68.626 3.69463 66.6592 2.58308 65.0359 2.32133C63.5599 2.06987 62.7189 2.46586 60.4411 4.49266C56.8913 7.66482 53.6357 11.6751 51.6388 15.333C51.2323 16.082 51.2444 16.0694 52.112 14.9546C52.4855 14.4786 53.6686 13.1239 54.7561 11.944C58.5499 7.81458 60.404 6.19021 62.2328 5.37135C62.9278 5.06415 63.1847 5.01094 64.3133 4.99484C65.4909 4.97804 65.663 5.00036 66.2934 5.32582C66.6764 5.50616 67.7048 6.20994 68.5855 6.87866C69.5654 7.62029 74.1717 10.5646 80.4855 14.5003C92.667 22.0808 102.522 28.2576 110.112 33.1042C113.146 35.0304 116.625 37.2229 117.851 37.9858C125.661 42.7796 130.794 46.5092 132.803 48.8341C135.149 51.5753 135.565 54.1211 134.083 56.8674C131.561 61.5856 124.648 67.2212 121.239 67.3442L120.392 67.3686L120.886 67.5722C122.133 68.1118 123.86 67.9137 125.541 67.0474C127.015 66.2956 128.4 65.3096 131.214 63.0275C134.598 60.2664 135.597 59.7939 137.32 60.1285C138.489 60.3596 139.256 60.8317 141.825 62.8761C143.153 63.9348 148.216 67.9627 153.081 71.8324L161.918 78.8536L164.101 78.8225C166.972 78.7815 169.263 78.5754 172.41 78.0846C175.323 77.6219 177.734 77.1787 177.831 77.0906C177.855 77.0531 177.058 76.2098 176.037 75.2086ZM156.5 64.6487C152.578 62.3511 147.72 59.8563 145.821 59.1525C145.241 58.9379 144.132 58.5945 143.356 58.4073C142.1 58.0908 141.732 58.0465 140.075 58.0577C139.045 58.0724 138.198 58.0474 138.198 58.0226C138.197 57.9978 138.402 57.7224 138.667 57.3965C139.414 56.4569 139.65 55.797 139.811 54.1844C139.842 53.7504 139.898 53.4028 139.923 53.4024C140.181 53.3987 145.28 56.4847 148.215 58.4247C151.683 60.704 158.365 65.5016 158.256 65.6146C158.245 65.6395 157.453 65.1925 156.5 64.6487Z" fill="#C79B00"/>
<path d="M132.01 50.9145C131.619 50.1644 129.552 48.051 128.287 47.1152C127.742 46.7019 75.9337 13.6739 73.681 12.2939C72.4184 11.5191 75.2573 13.5597 88.6185 22.9814C96.8361 28.7852 103.778 33.7153 104.051 33.9467C104.324 34.1782 105.107 34.8978 105.791 35.5446C106.476 36.2037 111.04 40.4865 115.927 45.0743C120.815 49.6621 125.839 54.3842 127.095 55.5554C128.351 56.739 129.42 57.7147 129.482 57.7386C129.741 57.834 131.466 54.8985 131.938 53.6035C132.398 52.2963 132.414 51.7139 132.01 50.9145Z" fill="#C79B00"/>
<path d="M127.379 58.289C122.038 52.8777 110.351 41.252 110.813 41.8028C115.531 47.4336 126.494 60.7295 126.495 60.8285C126.496 60.9028 125.933 61.8647 125.25 62.9645C124.554 64.0645 123.954 65.0268 123.906 65.1142C123.858 65.2016 124.333 64.8976 124.964 64.455C125.729 63.8991 126.311 63.3705 126.72 62.832C127.407 61.9304 128.654 59.9183 128.651 59.7077C128.65 59.6334 128.077 58.9975 127.379 58.289Z" fill="#C79B00"/>
<path d="M112.656 62.6237C98.8934 53.443 69.2436 34.0963 65.1224 31.6157C59.8007 28.4091 56.9267 26.493 54.2214 24.3514C51.5532 22.2342 50.7525 21.1555 50.5194 19.437L50.4089 18.5715L50.4592 19.5122C50.5468 21.3566 51.585 22.7416 54.8503 25.4325C57.5197 27.6365 58.3126 28.1702 69.4089 35.3574C70.8083 36.2665 74.0164 38.3884 76.5313 40.0744C80.9909 43.058 90.3535 49.1303 96.3463 52.9343C101.349 56.1084 114.209 64.0012 116.746 65.4639C116.795 65.488 116.832 65.4874 116.832 65.4627C116.831 65.4379 114.948 64.1517 112.656 62.6237Z" fill="#C79B00"/>
</svg>
