<svg width="100" height="70" viewBox="0 0 100 70" fill="none" xmlns="http://www.w3.org/2000/svg">
<path d="M8.27034 0.152678C7.54293 0.4499 6.92621 1.17173 6.57832 2.12709C6.29368 2.9126 6.24624 3.44336 6.24624 5.90606V8.77213L6.81552 9.51519C7.55874 10.4705 7.82757 11.1924 7.82757 12.2539C7.82757 13.3154 7.5113 14.1858 6.92621 14.6954C6.5625 15.0138 6.04067 15.12 4.09564 15.2049C1.81853 15.3323 1.69202 15.3535 1.15437 15.9055C0.853916 16.2239 0.458585 16.8396 0.300452 17.2854C0.0158133 18.0497 0 18.8352 0 35.0763V52.0605L0.379518 52.8672C0.585091 53.3131 1.04368 53.9287 1.39157 54.2472C1.99247 54.778 2.1506 54.8204 4.25377 54.8841C6.70482 54.9903 7.19503 55.1813 7.59037 56.2004C8.12802 57.5803 7.65362 59.852 6.64157 60.7436L6.23043 61.1046L6.27787 64.2466C6.32531 67.2825 6.34112 67.4099 6.76808 68.2804C7.05272 68.8536 7.46386 69.3419 7.87501 69.5966C8.52335 69.9788 9.61446 70 49.9541 70H91.3848L92.0806 69.5542C92.4918 69.2782 92.9345 68.7474 93.1876 68.2379C93.5987 67.4311 93.6145 67.2188 93.662 64.3528L93.7252 61.3381L93.0136 60.3827C91.796 58.748 91.6853 56.6887 92.7606 55.4786C93.2192 54.9478 93.3299 54.9266 95.1642 54.9266C97.979 54.9266 98.8961 54.4807 99.5919 52.7399L99.9398 51.8482L99.9873 36.1378C100.019 27.4972 99.9873 19.8331 99.9398 19.1112C99.8608 18.1771 99.7026 17.5402 99.3705 16.8608C98.6906 15.4596 98.1846 15.2261 95.9549 15.2261C94.927 15.2261 93.8517 15.1412 93.5513 15.0138C91.7802 14.3344 91.4955 11.5533 92.9978 9.60011L93.6936 8.68721V5.92729C93.6936 3.33721 93.662 3.10367 93.2508 2.06339C92.9504 1.25665 92.6499 0.810814 92.1913 0.492361L91.5588 0.0465268L50.128 0.00406644C27.3411 -0.0171637 8.50754 0.0465268 8.27034 0.152678ZM78.2757 2.93383C88.4278 3.23106 90.0091 3.4009 84.8382 3.6132C66.1785 4.39872 33.6348 4.39872 15.1017 3.6132C11.8916 3.48582 11.4488 3.42213 12.5715 3.31598C13.8524 3.16736 27.8155 2.74276 35.3426 2.61538C42.3954 2.488 70.8434 2.7003 78.2757 2.93383ZM22.2176 26.9452C25.997 31.913 25.8863 31.7857 26.8035 31.7857C27.2937 31.7857 27.8155 31.637 28.0844 31.4247C28.5746 31.0214 29.0173 30.0023 29.0173 29.1956C29.0173 28.1765 29.5234 25.9474 29.8396 25.4803C30.2508 24.8858 31.0572 24.8434 31.5316 25.3529C31.7847 25.6501 31.9586 26.3295 32.2432 28.1765C32.5753 30.3208 32.6702 30.6605 33.113 31.1912L33.6032 31.7857H38.7899C42.7116 31.7857 44.0399 31.722 44.2297 31.5097C44.3562 31.3823 44.6883 30.8091 44.9571 30.2783C47.5189 25.1406 52.4526 25.2043 55.0143 30.4057C55.3464 31.0426 55.7576 31.6158 55.9473 31.6795C56.1371 31.7432 58.5881 31.7857 61.4029 31.7432L66.5264 31.6795L66.9534 31.0426C67.2854 30.5331 67.4278 29.9599 67.665 28.2402C67.997 25.6289 68.2975 24.992 69.1672 24.992C70.0686 24.992 70.4006 25.6077 70.7169 27.8793C70.8434 28.9196 71.0332 30.0448 71.1281 30.3845C71.3653 31.2549 72.1085 31.7857 73.1047 31.7857H73.9428L76.6469 28.2827C79.0031 25.2468 79.43 24.7797 79.8728 24.7797C80.1416 24.7797 80.4737 24.9283 80.5844 25.1194C80.7109 25.3105 81.9127 26.9027 83.2885 28.6224L85.7711 31.7857H86.5776C88.2064 31.7857 88.7915 30.8091 88.7915 28.0704C88.7915 26.4993 88.8073 26.4144 89.3291 25.7138C89.9617 24.8646 90.6416 24.7585 91.4323 25.4166C92.0648 25.9261 92.1913 26.5418 92.4601 30.4057C92.7606 34.8003 92.6973 37.3692 92.1755 42.7617C92.049 44.0779 91.4007 44.9484 90.5309 44.9484C89.9933 44.9484 89.7719 44.821 89.3291 44.2266C88.8073 43.526 88.7915 43.441 88.7915 41.87C88.7915 39.1738 88.1906 38.1547 86.5934 38.1547H85.7711L83.0513 41.6577C80.6951 44.6724 80.2681 45.1607 79.8254 45.1607C79.3668 45.1607 78.9872 44.7361 76.6943 41.7214L74.0693 38.3033L73.2312 38.1972C72.1875 38.091 71.4759 38.5369 71.1755 39.4922C71.049 39.8744 70.8434 41.0208 70.7011 42.0611C70.4165 44.3115 70.0686 44.9484 69.183 44.9484C68.3607 44.9484 68.1235 44.4813 67.744 42.0611C67.3012 39.3224 67.2222 39.0888 66.6213 38.5793C66.1311 38.1759 65.8148 38.1547 61.1499 38.1547C58.0821 38.1547 56.0738 38.2396 55.8999 38.367C55.7259 38.4944 55.4097 39.0039 55.1883 39.5134C54.619 40.8297 53.1958 42.5494 52.1521 43.2075C50.8396 44.0142 49.0844 44.0142 47.8035 43.2075C46.5068 42.4008 45.7003 41.4454 44.878 39.8107C44.4827 38.9827 44.0241 38.3246 43.8344 38.2609C43.6446 38.1972 41.2252 38.1547 38.4737 38.1972L33.4451 38.2609L33.0339 38.8341C32.686 39.2799 32.5437 39.8531 32.2432 41.8063C31.8321 44.4176 31.5949 44.9484 30.7252 44.9484C29.7131 44.9484 29.4759 44.4389 29.0964 41.5091C28.9699 40.49 28.7801 39.4498 28.6694 39.2162C28.369 38.6006 27.5783 38.1547 26.7244 38.1547C25.9338 38.1547 25.997 38.091 21.7749 43.5472C21.1423 44.3752 20.494 45.1182 20.3359 45.2031C19.8298 45.4367 19.1973 44.7998 16.8411 41.6789C15.5761 40.0017 14.3901 38.5156 14.2003 38.3882C13.7101 38.0486 12.6348 38.091 12.0971 38.4732C11.3855 38.9615 11.1484 39.7894 11.1484 41.7851C11.1484 43.4623 11.1325 43.526 10.6107 44.2266C9.96236 45.097 9.07681 45.2244 8.41266 44.5238C7.87501 43.9506 7.73269 43.2287 7.5113 40.0442C7.41642 38.5793 7.28991 36.8597 7.21085 36.244C7.11597 35.5009 7.14759 34.3545 7.2741 32.9746C7.40061 31.7857 7.54293 29.9174 7.60618 28.8134C7.76431 25.9474 8.20708 24.992 9.40889 24.992C10.5791 24.992 11.1484 26.1172 11.1484 28.3888C11.1484 30.8728 11.7493 31.7857 13.378 31.7857H14.1845L16.5723 28.6436C17.8848 26.9239 19.0866 25.3529 19.2447 25.1406C19.4029 24.9495 19.7666 24.7797 20.0512 24.7797C20.4782 24.7797 20.8103 25.0981 22.2176 26.9452Z" fill="#C79B00"/>
</svg>
