<svg width="469" height="613" viewBox="0 0 469 613" fill="none" xmlns="http://www.w3.org/2000/svg">
<path d="M193.933 1.66665C160.2 5.93332 127.4 15.8 102.333 29.2667C64.3334 49.8 31.1334 83.9333 14.8667 119C-11.4 175.8 -1.53329 275.133 35.1334 323.667C44.4667 335.933 51.8 351.4 55.5334 366.333C59 380.067 61.5334 405.8 60.4667 415.4C59.9334 419.667 60.2 422.333 61 422.333C63.6667 422.333 82.0667 402.2 90.0667 390.733C99.2667 377.267 109 358.467 112.333 347.667C114.067 342.067 114.733 334.467 115 316.333C115.533 282.6 118.733 270.333 130.467 257.667C141.133 246.2 162.333 240.867 179 245.533C189.8 248.6 200.333 256.067 207.133 265.4C215.933 277.267 216.333 279.4 216.2 311C216.2 342.2 214.333 355.933 207.533 376.333C202.6 390.867 200.067 395.133 189.267 406.6C173.667 423.4 167.8 445.4 164.733 498.067C163.4 521.133 163.533 525.4 165.133 527C166.2 527.933 184.2 540.733 205.133 555.4L243.267 582.067L248.467 580.867C256.733 579 279.667 579.4 288.2 581.667C292.467 582.867 304.867 587.4 315.533 591.933C354.733 608.333 374.467 613.667 392.733 612.733C411 611.8 418.067 607 426.2 589.667C439 562.6 441.267 527 432.067 495.933C424.867 471.267 424.467 465 430.067 454.2C435.133 444.2 438.333 443.933 442.733 453.133L446.067 460.2L450.467 453.8C457 444.733 458.067 440.6 458.2 425.933C458.333 415.533 457.8 411.933 455.8 407.8C450.067 396.6 433.8 386.333 421.667 386.333C411 386.333 396.2 394.2 377 410.2C373 413.667 368.733 417.133 367.533 418.067C365.667 419.4 359.933 413.933 324.867 376.733C302.6 353 281.133 330.2 277.267 326.067L270.067 318.467L272.867 280.067C276.6 230.733 276.067 233.533 281.667 231.667C287.667 229.667 307.133 217.4 315.8 210.067C334.2 194.6 347.533 170.333 349.8 148.2C350.733 139.933 350.867 139.667 354.467 139.667C367.4 139.667 388.6 146.467 408.6 157L421 163.533L423.8 160.6C429.4 154.733 438.467 141.133 441.8 133.533C446.467 123.133 447.667 108.067 444.467 98.0667C438.333 79.1333 418.067 55.2667 395.533 40.2C367.4 21.5333 334.2 9.53332 291.667 2.99998C272.2 -0.0666824 213.4 -0.866682 193.933 1.66665Z" fill="#C79B00"/>
<path d="M425.133 168.067C425 168.733 429.4 187 434.867 208.867C440.333 230.733 445.267 251.533 445.667 255.133C446.467 261 446.2 261.933 443.133 264.867C441.267 266.733 435.8 269.4 431.133 270.867L422.6 273.667L436.2 296.467C470.867 354.467 472.467 365.133 449.667 383C447.133 385 447.133 385.133 450.333 383.533C465.133 376.333 471.533 362.2 467 346.733C464.067 336.6 454.2 316.6 441.667 295.133C436.2 285.667 431.667 277.667 431.667 277.533C431.667 277.267 434.733 275.8 438.333 274.2C442.067 272.6 446.6 269.4 448.467 267.267C451.533 263.667 451.933 262.2 451.267 256.333C450.867 252.733 448.067 240.733 445 229.933C439.533 209.933 425.4 166.067 425.133 168.067Z" fill="#C79B00"/>
</svg>
