<svg width="80" height="100" viewBox="0 0 80 100" fill="none" xmlns="http://www.w3.org/2000/svg">
<path d="M62.5546 0.0413055C59.6506 0.217485 57.6473 0.724002 56.3768 1.60049C55.5029 2.20391 55.0592 2.84697 54.8239 3.85119C54.0374 7.25145 51.7787 24.0193 51.1266 31.3968C51.046 32.2821 50.972 33.0617 50.9519 33.1366L50.925 33.2687L50.2057 33.2731C48.7402 33.2776 47.4361 33.6607 46.179 34.4447C44.4513 35.5282 43.5438 36.9905 43.2548 39.1487C43.1405 39.99 43.2144 43.4739 43.4228 47.3191C43.8598 55.278 43.8262 58.5725 43.2884 62.4044C42.28 69.6013 39.0331 75.7588 33.8636 80.2646C31.7662 82.0969 28.7882 84.0172 26.5228 85.0038C24.7011 85.7966 22.4558 86.3296 20.2441 86.5014C19.2896 86.5762 17.4611 86.5278 16.6073 86.4089C14.7721 86.1534 13.1924 85.6733 11.9958 85.0126C10.053 83.9423 8.52034 82.0484 7.02797 78.8772C4.95077 74.4771 4.3592 68.465 5.381 62.2503C5.502 61.4839 5.57595 61.224 5.70367 61.017C5.79778 60.8717 5.93895 60.6118 6.0129 60.44L6.16079 60.1317L6.71202 59.9864C8.33211 59.5591 10.2816 58.7046 11.1353 58.0396C12.1706 57.238 12.6411 56.498 12.7218 55.529C12.8294 54.2341 12.0765 52.992 10.6513 52.1287L10.1337 51.8116L11.5588 49.583C13.273 46.9138 13.2529 46.9447 13.1252 47.0328C13.0781 47.068 12.6613 47.4336 12.2042 47.8476C9.73709 50.063 8.79595 50.7017 7.29015 51.1686C6.49019 51.4196 5.98601 51.4945 5.24655 51.4725C4.73565 51.4593 4.58776 51.4372 4.27181 51.3271C3.27018 50.9704 2.18788 49.5521 0.42662 46.284C0.124114 45.7202 -0.0237776 45.4956 0.00311187 45.6233C0.319063 47.438 0.715682 50.6621 0.809795 52.142C0.863574 53.0273 0.964409 53.5514 1.15263 53.9786C1.35431 54.4411 1.58287 54.6834 1.89882 54.7714L2.14082 54.8375L2.10049 55.5687C2.06015 56.3042 1.88537 57.5066 1.51564 59.5635C1.21314 61.2637 1.1728 61.6865 1.13247 63.4967C1.09213 65.2321 1.1728 66.5402 1.34758 67.2273C1.39464 67.4211 1.45514 67.9453 1.48203 68.3945C1.77109 73.9794 3.08867 78.2385 5.744 82.1982C6.92042 83.9468 8.4195 85.3958 9.93203 86.2327C11.8882 87.3162 14.4965 88.0033 17.3199 88.1707C20.2777 88.3512 23.7061 87.8447 26.4892 86.8141C28.6538 86.0169 31.4637 84.3828 33.6821 82.643C39.1945 78.3178 42.838 72.3718 44.169 65.514C44.9152 61.6468 45.0362 57.5419 44.5656 51.5253C44.5118 50.8118 44.3505 48.8871 44.2026 47.253C43.7993 42.7912 43.7186 41.58 43.7119 40.2278C43.7119 38.5717 43.8867 37.6776 44.4177 36.6822C45.4664 34.7354 47.9066 33.3789 50.367 33.3789H50.925V33.5198C50.925 33.5991 50.8914 33.9999 50.8577 34.4139C50.4141 39.6773 49.7822 62.7524 49.7822 73.9001C49.7822 82.0264 50.1385 90.0822 50.6964 94.7774C50.9317 96.7638 51.7048 98.2041 53.0291 99.1246C53.6744 99.5739 54.3534 99.7721 55.7718 99.9174C56.8474 100.028 61.8354 100.028 63.9663 99.9174C66.9511 99.7589 71.1727 99.4549 72.6718 99.2876C73.9827 99.1422 76.4229 98.7194 78.453 98.2878L79.5286 98.0587L79.058 98.0235C78.8026 98.0059 74.628 97.8737 69.7812 97.7284C64.9411 97.5786 60.9346 97.4509 60.8942 97.4421C60.8337 97.4289 60.8068 97.2967 60.8068 96.984V96.5392L61.5329 96.5656C61.9295 96.5788 64.4503 96.6361 67.1326 96.6933L72.0197 96.799L74.6751 96.6317C76.1405 96.5348 77.364 96.4467 77.4043 96.4291C77.5119 96.3894 77.4917 96.2529 77.3842 96.1868C77.3102 96.1516 75.0044 96.0855 69.0955 95.9622C64.5915 95.8653 60.8673 95.7772 60.827 95.7684C60.7665 95.7552 60.7396 95.623 60.7396 95.3059V94.8655H61.0959C61.2841 94.8655 63.8453 94.9183 66.7763 94.98L72.1004 95.0989L74.7423 94.9315C76.9069 94.795 77.3976 94.7554 77.4984 94.6937C77.6127 94.6188 77.6127 94.6144 77.4984 94.5263C77.3774 94.4338 77.2497 94.4294 69.0821 94.2532C64.5243 94.1519 60.7665 94.0595 60.7329 94.0462C60.6993 94.033 60.6724 93.826 60.6724 93.5838V93.1477L61.0287 93.1521C61.2169 93.1521 63.7983 93.2094 66.7561 93.2755L72.134 93.3988L74.823 93.227C77.6329 93.0508 77.8077 93.0244 77.6396 92.8482C77.5926 92.7998 77.4312 92.7601 77.2027 92.7425C77.001 92.7249 73.4381 92.6412 69.277 92.5531C65.1159 92.4694 61.4656 92.3857 61.1631 92.3725L60.6052 92.3461V91.888V91.43L61.3312 91.452C61.7278 91.4652 64.3495 91.5269 67.1595 91.5885L72.2685 91.6986L74.8566 91.5357C76.2817 91.4432 77.5119 91.3551 77.5993 91.3375C77.7606 91.2978 77.7942 91.1613 77.6598 91.082C77.5993 91.0512 74.8297 90.9763 69.1358 90.853C64.4974 90.7561 60.6657 90.668 60.6253 90.6548C60.5648 90.646 60.5379 90.5138 60.5379 90.1967V89.7563H60.8606C61.0354 89.7519 63.7042 89.8091 66.7897 89.8708L72.4029 89.9941L75.0246 89.8267C76.4632 89.7342 77.6799 89.6418 77.727 89.6153C77.8615 89.5404 77.8278 89.4039 77.6665 89.3643C77.5791 89.3422 73.7003 89.2409 69.0417 89.1396C64.3831 89.0427 60.5581 88.9502 60.5379 88.937C60.5178 88.9238 60.4909 88.7168 60.4842 88.4746L60.4573 88.0385H60.7531C60.9077 88.0385 63.6101 88.0958 66.7427 88.1662L72.45 88.294L75.0986 88.1266C76.6918 88.0253 77.7942 87.9372 77.8547 87.9064C77.9757 87.8359 77.9757 87.7566 77.848 87.6862C77.7808 87.6465 75.4212 87.5805 69.1291 87.4439C64.3831 87.3382 60.4976 87.2501 60.4909 87.2501C60.4438 87.2369 60.4035 86.3956 60.4438 86.3648C60.4774 86.3428 63.2 86.3868 66.4872 86.4617L72.4701 86.5938L75.0918 86.4353C76.5371 86.3472 77.7808 86.2547 77.8682 86.2327C78.0497 86.1842 78.0631 86.0345 77.8951 85.9728C77.8278 85.9508 73.9154 85.8451 69.0955 85.7438L60.4102 85.5544L60.39 85.1095C60.3766 84.8673 60.3766 84.6603 60.39 84.6471C60.4035 84.6383 63.1529 84.6867 66.5074 84.7616L72.6046 84.8893L75.2128 84.7263C76.6447 84.6383 77.8816 84.5502 77.9488 84.537C78.1035 84.5061 78.1303 84.3211 78.0026 84.2683C77.9354 84.2374 62.1648 83.8675 60.7262 83.8587L60.3363 83.8543V83.3918V82.9293H60.5783C60.7127 82.9293 63.5025 82.9866 66.783 83.0615L72.739 83.1936L75.3809 83.0218C78.1035 82.85 78.285 82.828 78.1841 82.6562C78.1572 82.6166 78.09 82.5726 78.0362 82.5593C77.9757 82.5417 74.265 82.4536 69.7879 82.3567C65.3108 82.2598 61.3379 82.1673 60.9614 82.1541L60.269 82.1277V81.6652V81.2028L60.9614 81.2292C61.3379 81.2424 64.1613 81.3085 67.2334 81.3745L72.813 81.489L75.4347 81.3261C76.8733 81.2336 78.1035 81.1411 78.1707 81.1191C78.3992 81.0354 78.2177 80.8152 77.9287 80.8152C77.848 80.8196 73.8415 80.7359 69.035 80.6302L60.2892 80.4408L60.2422 80.0135C60.2153 79.7757 60.2085 79.5643 60.2287 79.5467C60.2422 79.5291 63.0924 79.5775 66.5679 79.6524L72.8735 79.7933L75.4952 79.626C76.9405 79.5335 78.1707 79.4454 78.2379 79.4278C78.3791 79.3881 78.3858 79.2604 78.2514 79.1855C78.1774 79.1459 75.9456 79.0798 69.4921 78.9389C64.7327 78.8331 60.6993 78.7451 60.5245 78.7451H60.2018V78.2826V77.8201H60.4237C60.5379 77.8201 63.4084 77.8818 66.7897 77.9567L72.9407 78.0932L75.5288 77.9302C76.9539 77.8421 78.1841 77.754 78.2715 77.732C78.4329 77.688 78.4665 77.5514 78.332 77.4766C78.2782 77.4457 75.0179 77.3576 69.2501 77.2343C62.0639 77.0758 60.2422 77.0229 60.1951 76.9745C60.1212 76.8996 60.1144 76.1596 60.1884 76.1288C60.222 76.1156 62.8437 76.164 66.0234 76.2345C69.1963 76.305 72.1676 76.3666 72.6113 76.3666C73.5726 76.3666 78.3455 76.0715 78.4665 76.0055C78.5135 75.979 78.5539 75.935 78.5539 75.9042C78.5539 75.7324 78.6345 75.7368 69.2501 75.5298L60.1682 75.3316L60.148 74.8691L60.1279 74.4066L60.7194 74.4199C61.0421 74.4243 63.9731 74.4903 67.2267 74.5608L73.1356 74.6885L75.5624 74.5388C78.6547 74.345 78.5404 74.3538 78.5942 74.2437C78.695 74.0279 79.0379 74.0411 69.5392 73.8341C64.6453 73.7239 60.5245 73.6359 60.39 73.6359H60.1346V73.1734C60.1346 72.7638 60.148 72.7109 60.2556 72.7109C60.3161 72.7109 63.2672 72.7726 66.8032 72.8475L73.2365 72.9884L75.8784 72.821C77.3304 72.7329 78.5606 72.636 78.6076 72.614C78.7354 72.5435 78.7017 72.4026 78.5404 72.3586C78.453 72.3365 74.6078 72.2396 69.9829 72.1427C65.3646 72.0414 61.2371 71.9533 60.827 71.9357L60.0674 71.9093V71.4777C60.0674 71.2354 60.0943 71.0328 60.1211 71.0196C60.148 71.0108 63.1395 71.0636 66.7561 71.1429L73.344 71.2883L75.9657 71.1209C77.4111 71.0284 78.6076 70.9491 78.6345 70.9491C78.7555 70.9491 78.816 70.7817 78.7286 70.7069C78.648 70.632 77.9892 70.6144 69.3711 70.425L60.101 70.2224V69.7643V69.3062L60.6724 69.3151C60.9883 69.3195 63.9663 69.3811 67.2939 69.456L73.344 69.5881L75.9657 69.4252C77.4111 69.3371 78.6547 69.2446 78.7421 69.227C78.9236 69.1829 78.937 69.0332 78.7623 68.9715C78.6883 68.9451 74.8229 68.8438 69.4383 68.7249C64.3764 68.6147 60.1951 68.5134 60.1413 68.5046C60.0674 68.4826 60.0539 68.3989 60.0943 68.0554C60.1212 67.8219 60.148 67.6193 60.1615 67.6105C60.1749 67.6017 63.1933 67.659 66.8637 67.7382L73.5457 67.8836L76.1674 67.7162C77.606 67.6281 78.8227 67.5312 78.8765 67.5048C79.0379 67.4123 78.9438 67.2758 78.6883 67.2405C78.5606 67.2229 74.6146 67.126 69.9156 67.0291C65.2234 66.9322 61.0959 66.8397 60.7598 66.8265L60.1346 66.8001V66.342V65.8796L60.9951 65.906C61.4656 65.9236 64.4974 65.9897 67.7309 66.0601L73.6129 66.1879L76.2481 66.0161C77.6934 65.928 78.9101 65.8355 78.9505 65.8223C79.0648 65.7738 79.0379 65.5889 78.9101 65.5536C78.7959 65.5272 61.8824 65.1396 60.7262 65.1352H60.2018V64.6727V64.2103H60.6253C60.8539 64.2103 63.879 64.2719 67.3477 64.3468L73.6465 64.4877L76.2548 64.3248C77.6867 64.2367 78.9236 64.1442 79.011 64.1222C79.3404 64.0297 79.0984 63.8139 78.6681 63.8139C78.5135 63.8139 74.3457 63.7258 69.4115 63.6157C64.4772 63.5055 60.4102 63.4174 60.3766 63.4174C60.3228 63.4174 60.3766 62.541 60.4304 62.5057C60.4371 62.4969 63.442 62.5586 67.099 62.6379L73.7474 62.7832L76.4027 62.6158C78.4127 62.4881 79.0782 62.4308 79.1589 62.3824C79.3135 62.2767 79.1589 62.1666 78.816 62.1313C78.6547 62.1137 74.5003 62.0168 69.593 61.9111C64.6789 61.8098 60.6321 61.7129 60.5984 61.6953C60.5379 61.6733 60.6455 60.8673 60.7194 60.8188C60.7329 60.81 63.7311 60.8628 67.3813 60.9377L74.0163 61.0787L76.5708 60.9157C77.9757 60.8232 79.1656 60.7351 79.2126 60.7175C79.3202 60.669 79.3135 60.5325 79.2059 60.4708C79.1454 60.44 76.1069 60.3563 70.0165 60.2242C65.0083 60.1141 60.9009 60.0128 60.8875 60.004C60.8404 59.9731 61.0219 59.1451 61.0757 59.1231C61.1026 59.1143 64.0067 59.1671 67.5292 59.242L73.9289 59.3829L76.5506 59.2156C77.9892 59.1275 79.2126 59.0394 79.2597 59.0306C79.3068 59.0174 79.3673 58.9733 79.3941 58.9337C79.4479 58.8412 79.2059 58.7046 78.9975 58.7091C78.9236 58.7091 74.9036 58.6254 70.0702 58.5197C62.7899 58.3655 61.2774 58.3215 61.2774 58.273C61.2774 58.2378 61.3245 58.0352 61.385 57.8193L61.4992 57.4273H62.0437C62.3395 57.4273 65.1629 57.4846 68.309 57.5551L74.0297 57.6828L76.6649 57.5154C78.2648 57.4141 79.3336 57.326 79.3941 57.2952C79.5219 57.2247 79.5219 57.1455 79.3941 57.075C79.3269 57.0398 76.9002 56.9693 70.5475 56.8283C65.7343 56.7226 61.7883 56.6301 61.7749 56.6257C61.7547 56.6125 62.0572 55.7536 62.0908 55.7316C62.1042 55.7228 64.7932 55.7757 68.067 55.8505L74.0163 55.9827L76.6716 55.8197C78.1303 55.7272 79.3807 55.6347 79.4479 55.6127C79.5824 55.5687 79.6025 55.4321 79.4815 55.366C79.4278 55.3396 76.201 55.2515 70.924 55.137C66.2654 55.0357 62.4471 54.9476 62.4336 54.9388C62.3799 54.908 62.7832 54.0711 62.8504 54.0535C62.8975 54.0403 65.4654 54.0887 68.5577 54.1592L74.1843 54.2825L76.7388 54.1196C78.1438 54.0315 79.3673 53.9434 79.4614 53.9302C79.5824 53.9082 79.6294 53.8729 79.6294 53.7936C79.6294 53.7364 79.5891 53.6747 79.5488 53.6527C79.4681 53.6219 65.4923 53.2959 64.0067 53.2915C63.247 53.2871 63.2807 53.3444 63.6773 52.7454C63.926 52.3666 63.9327 52.3622 64.168 52.3622C64.2957 52.3622 66.6418 52.4106 69.3778 52.4723L74.3524 52.5824L76.9539 52.415C78.6614 52.3049 79.5891 52.2257 79.6563 52.1904C79.7908 52.1199 79.7908 52.0363 79.6765 51.9702C79.6093 51.9394 77.243 51.8733 72.2953 51.7676C68.2888 51.6795 64.8201 51.6002 64.5982 51.587L64.1882 51.565L64.1411 51.3183C64.1142 51.1818 64.0336 50.9792 63.9663 50.8735C63.8924 50.7634 63.8386 50.6709 63.8453 50.6621C63.8588 50.6577 66.2721 50.7017 69.2098 50.7678L74.5541 50.8823L77.1623 50.7193C78.5942 50.6268 79.8109 50.5431 79.858 50.5299C80.0328 50.4859 80.0462 50.3626 79.8983 50.2833C79.784 50.2216 79.6227 50.204 79.2328 50.204C78.4732 50.204 63.1462 49.8604 63.1328 49.8428C63.0454 49.7679 62.5345 49.1029 62.5614 49.0897C62.5748 49.0808 65.2369 49.1337 68.4703 49.2042L74.3524 49.3363L77.0413 49.1689C78.5202 49.0808 79.7706 48.9839 79.8177 48.9619C79.9387 48.8959 79.9185 48.7593 79.784 48.7153C79.7168 48.6933 75.717 48.5875 70.8904 48.4862C66.0637 48.3849 62.0706 48.288 62.0169 48.2704C61.8891 48.2264 61.4589 47.5437 61.5463 47.5261C61.5866 47.5173 64.4705 47.5745 67.9661 47.6494L74.3188 47.7903L76.8867 47.6318C78.3051 47.5437 79.5286 47.4512 79.616 47.4292C79.7101 47.4027 79.7639 47.3499 79.7639 47.275C79.7639 47.2001 79.7168 47.1605 79.616 47.1429C79.5286 47.1297 75.3338 47.0328 70.2921 46.9226C65.2503 46.8125 61.1026 46.7156 61.0757 46.7024C61.0219 46.6804 60.7127 45.9757 60.7531 45.9537C60.7665 45.9493 63.7714 46.0109 67.4284 46.0946L74.0835 46.2444L76.7388 46.0814C78.1976 45.9933 79.4614 45.9008 79.5488 45.8832C79.7101 45.8435 79.7437 45.707 79.6093 45.6321C79.5488 45.5969 76.4296 45.5132 70.3795 45.3855C65.3579 45.2754 61.0623 45.1785 60.8404 45.1741L60.4371 45.1609L60.3228 44.7865C60.2623 44.5795 60.222 44.4077 60.2287 44.3989C60.2422 44.3945 63.3748 44.4561 67.1998 44.5442L74.1507 44.694L76.7859 44.5266C78.2312 44.4341 79.4479 44.3416 79.4883 44.3284C79.616 44.2756 79.5757 44.0906 79.4278 44.0597C79.3538 44.0465 74.9843 43.9364 69.714 43.8219C64.4436 43.7074 60.101 43.5929 60.0741 43.5708C60.0405 43.5488 59.9934 43.377 59.9733 43.1876L59.9262 42.8485H60.2825C60.4774 42.8485 63.6437 42.919 67.3141 42.9983L73.9827 43.148L76.6447 42.9806C78.2514 42.8793 79.3404 42.7912 79.3941 42.7604C79.5219 42.6899 79.5219 42.6107 79.3941 42.5402C79.3202 42.5005 76.7657 42.4301 69.5997 42.2715C64.2621 42.157 59.8926 42.0601 59.8859 42.0557C59.8724 42.0557 59.8657 41.8883 59.8657 41.6813V41.3069L60.4237 41.3113C60.7262 41.3113 63.8857 41.3774 67.4418 41.4567L73.9154 41.5976L76.4968 41.4347C77.9152 41.3466 79.1454 41.2585 79.2194 41.2409C79.374 41.21 79.4143 41.025 79.2799 40.9722C79.2261 40.9502 61.8891 40.5405 60.0203 40.5141C59.8724 40.5141 59.8657 40.4965 59.8657 40.1926C59.8657 40.0208 59.8926 39.849 59.9262 39.8138C59.98 39.761 60.9009 39.7698 66.5007 39.8931C70.077 39.968 73.2701 40.0296 73.5928 40.0296C74.3591 40.0296 78.9975 39.7345 79.1656 39.6773C79.2328 39.6508 79.2933 39.6024 79.2933 39.5672C79.2933 39.3866 79.3135 39.391 70.2517 39.1972C65.4453 39.0959 61.1631 38.999 60.7329 38.9858L59.9464 38.9593L59.98 38.6026C60.0001 38.4044 60.027 38.237 60.0472 38.2282C60.0607 38.215 63.1462 38.2722 66.9107 38.3559L73.7474 38.5013L76.3691 38.3383C77.8144 38.2458 79.0311 38.1489 79.0782 38.1269C79.2059 38.052 79.1723 37.9155 79.011 37.8714C78.9236 37.8494 74.6414 37.7437 69.4854 37.6336C64.3293 37.5235 60.101 37.4222 60.0875 37.4134C60.0741 37.4046 60.0808 37.2372 60.1077 37.039L60.1548 36.6822H60.5312C60.7396 36.6822 63.7579 36.7439 67.2469 36.8188L73.586 36.9597L76.1876 36.7967C77.6194 36.7042 78.8362 36.625 78.9034 36.6118C79.0648 36.5809 79.0984 36.4752 78.9706 36.3783C78.8631 36.2946 78.5202 36.2858 69.5526 36.092C64.4302 35.9775 60.2354 35.8806 60.222 35.8762C60.2153 35.8674 60.222 35.7 60.2489 35.5018L60.2892 35.1406H60.7665C61.0287 35.1406 63.9798 35.2023 67.3275 35.2772L73.4112 35.4137L76.033 35.2508C77.4783 35.1627 78.7219 35.0746 78.8093 35.0526C78.8967 35.0261 78.9572 34.9733 78.9572 34.9204C78.9572 34.8676 78.89 34.8103 78.8093 34.7883C78.7219 34.7619 74.5944 34.6562 69.5459 34.546C64.5377 34.4359 60.4237 34.3346 60.4035 34.3126C60.3833 34.295 60.3766 34.1276 60.39 33.9382L60.4169 33.5991H60.9211C61.1967 33.5991 64.121 33.6563 67.4149 33.7312L73.4112 33.8633L76.0397 33.696C77.4783 33.6035 78.695 33.511 78.7421 33.4934C78.8564 33.4449 78.8429 33.2599 78.7152 33.2291C78.6412 33.2115 61.3245 32.8063 60.5917 32.8063C60.5111 32.8063 60.5514 32.1236 60.6321 32.0707C60.6522 32.0531 63.5294 32.1016 67.0116 32.1764L73.344 32.313L75.9456 32.1456C77.5926 32.0443 78.5875 31.9606 78.6547 31.9254C78.7824 31.8549 78.7824 31.7756 78.6614 31.7096C78.5875 31.6699 76.033 31.5994 69.64 31.4585C64.7327 31.3528 60.706 31.2559 60.6926 31.2515C60.6858 31.2427 60.6926 31.0753 60.7194 30.8771L60.7598 30.5159H61.4051C61.7614 30.5203 64.5445 30.5776 67.5964 30.6437L73.1424 30.7714L75.8179 30.5996C77.2901 30.5071 78.5202 30.419 78.5606 30.4058C78.6681 30.3618 78.6278 30.1768 78.5068 30.1416C78.4194 30.1195 62.4404 29.7364 61.0152 29.7231C60.8606 29.7231 60.8539 29.7187 60.8875 29.3708C60.9077 29.177 60.9413 29.0052 60.9614 28.9876C60.9883 28.97 63.7243 29.0184 67.0452 29.0889L73.0751 29.221L75.7305 29.0492C78.5068 28.8731 78.6816 28.851 78.5135 28.6749C78.4732 28.6352 78.3119 28.5868 78.1438 28.5692C77.9825 28.5515 74.4599 28.4679 70.319 28.3798C66.178 28.2961 62.3933 28.2124 61.9026 28.1948L61.0152 28.1684L61.0556 27.8116C61.0757 27.6134 61.1026 27.446 61.1228 27.4372C61.1362 27.424 63.8117 27.4724 67.0788 27.5429L73.0079 27.6706L75.6296 27.5033C77.0682 27.4108 78.2917 27.3183 78.3387 27.2919C78.5001 27.1994 78.406 27.0628 78.1505 27.0276C78.0228 27.01 74.1642 26.9131 69.5862 26.8162C65.0016 26.7193 61.2438 26.6312 61.2236 26.6224C61.2102 26.6092 61.2169 26.4418 61.2438 26.248L61.2908 25.8912H61.6404C61.8286 25.8912 64.4302 25.9441 67.4216 26.0058L72.8533 26.1247L75.4885 25.9617C77.7068 25.8208 78.1371 25.7811 78.2446 25.715C78.3656 25.6402 78.3656 25.6358 78.2245 25.5433C78.1169 25.4728 78.0026 25.4508 77.7337 25.4508C77.5388 25.4508 73.8079 25.3715 69.4451 25.2746C65.0823 25.1777 61.4858 25.0984 61.4522 25.0984C61.385 25.0984 61.432 24.4113 61.4992 24.3629C61.5261 24.3497 64.0672 24.3893 67.1527 24.4554L72.7525 24.5787L75.3338 24.4157C76.7523 24.3276 77.9825 24.2396 78.0698 24.2175C78.1505 24.1911 78.2177 24.1382 78.2177 24.0854C78.2177 24.0325 78.1505 23.9753 78.0698 23.9533C77.9825 23.9312 74.2448 23.8299 69.7543 23.733C65.2638 23.6361 61.5866 23.5524 61.5799 23.5436C61.5665 23.5392 61.5799 23.3719 61.6001 23.1693L61.6337 22.8081H62.111C62.3731 22.8081 64.8402 22.8565 67.5964 22.9226L72.6046 23.0327L75.1927 22.8742C76.6178 22.7861 77.848 22.698 77.9354 22.676C78.0295 22.6495 78.0833 22.5967 78.0833 22.5218C78.0833 22.4469 78.0362 22.4073 77.9354 22.3897C77.848 22.3765 74.1843 22.2884 69.7879 22.1915C65.3915 22.0946 61.7816 22.0109 61.7681 21.9977C61.7547 21.9889 61.7614 21.8215 61.7883 21.6233L61.8354 21.2665H62.279C62.521 21.2665 64.9478 21.315 67.6636 21.3766L72.6046 21.4823L75.2061 21.315C76.8867 21.2093 77.8413 21.13 77.9085 21.0903C78.043 21.0243 78.043 20.9406 77.922 20.8745C77.8615 20.8393 75.354 20.7688 69.9156 20.6499C65.5595 20.553 61.9832 20.4649 61.9631 20.4561C61.9496 20.4429 61.9564 20.2755 61.9832 20.0817L62.0303 19.725H62.5815C62.8773 19.725 65.2167 19.7734 67.7645 19.8307L72.4029 19.9364L75.0784 19.769C76.5439 19.6721 77.7808 19.584 77.8144 19.5708C77.9287 19.5267 77.8883 19.3418 77.7673 19.3065C77.68 19.2845 65.0016 18.9806 62.1916 18.9321C62.1311 18.9321 62.1782 18.2406 62.2454 18.1966C62.2656 18.179 64.5445 18.2186 67.3073 18.2803L72.3357 18.386L74.9843 18.2186C76.443 18.1261 77.6732 18.0292 77.727 18.0028C77.8413 17.9367 77.8413 17.853 77.7136 17.787C77.6329 17.7429 75.8044 17.6901 70.0971 17.5623C65.9696 17.4699 62.5278 17.395 62.4538 17.3906C62.3194 17.3906 62.3194 17.373 62.3597 17.0338C62.3866 16.84 62.4269 16.6682 62.4471 16.655C62.4673 16.6418 64.4772 16.6726 66.904 16.7255C69.3375 16.7784 71.6164 16.818 71.9659 16.818C72.8197 16.818 77.485 16.5185 77.5993 16.4568C77.7606 16.3643 77.6665 16.2278 77.4111 16.1926C77.2833 16.1749 73.8818 16.0913 69.8551 16.0076C65.8284 15.9195 62.5278 15.8446 62.521 15.8402C62.4941 15.8138 62.6017 15.1443 62.642 15.1179C62.6689 15.1002 64.8268 15.1355 67.4418 15.1883L72.2012 15.2896L74.7759 15.1267C76.1943 15.0342 77.3976 14.9505 77.4447 14.9417C77.6127 14.8976 77.6262 14.7743 77.4783 14.695C77.3707 14.6378 77.2094 14.6158 76.88 14.6158C76.201 14.6158 62.7429 14.3118 62.7227 14.2986C62.6891 14.2722 62.7966 13.6071 62.837 13.5763C62.8639 13.5587 64.9545 13.5939 67.4754 13.6468L72.0668 13.7481L74.6213 13.5851C76.0263 13.497 77.243 13.4045 77.3304 13.3825C77.4111 13.3561 77.4783 13.3032 77.4783 13.2504C77.4783 13.1975 77.4111 13.1447 77.3304 13.1182C77.243 13.0962 74.3188 13.0169 70.8231 12.9464C67.3275 12.8716 64.121 12.7967 63.684 12.7835L62.9042 12.7571L62.9378 12.4179C62.958 12.2329 62.9983 12.0656 63.0319 12.0435C63.0588 12.0215 64.9613 12.0479 67.4821 12.1008L71.8786 12.2021L74.4599 12.0391C75.8784 11.951 77.1086 11.8629 77.1959 11.8409C77.3573 11.7969 77.3909 11.6603 77.2564 11.5855C77.2027 11.5546 74.87 11.4886 70.8904 11.4049C67.4351 11.33 64.2688 11.2595 63.8521 11.2419L63.1059 11.2155L63.1395 10.8807C63.1597 10.6914 63.2 10.524 63.2336 10.502C63.2605 10.4799 65.0823 10.502 67.5292 10.5592L71.771 10.6517L74.2717 10.4976C77.2968 10.3082 77.1892 10.3214 77.243 10.2069C77.3506 9.99545 77.4917 9.99985 70.8904 9.85891C67.4687 9.78844 64.363 9.71356 63.9865 9.70035L63.3076 9.67392L63.3412 9.33918C63.3613 9.14979 63.4017 8.98241 63.4286 8.96039C63.4622 8.93837 65.2772 8.9648 67.6099 9.01324L71.7307 9.10574L74.3658 8.93397C75.8111 8.84147 77.0279 8.75338 77.0682 8.73576C77.1825 8.69172 77.1556 8.50673 77.0279 8.4715C76.9607 8.45828 73.902 8.379 70.2316 8.29531C66.5545 8.21603 63.5428 8.14116 63.5294 8.13235C63.5159 8.12794 63.5294 7.96057 63.5496 7.76678L63.5966 7.41441L63.8991 7.40121C64.0672 7.3968 65.862 7.42763 67.8922 7.47608L71.5828 7.55977L74.2381 7.38799C75.7574 7.29109 76.927 7.19859 76.9808 7.16776C77.1018 7.1017 77.1018 7.02241 76.9741 6.95194C76.9002 6.9123 75.186 6.85945 70.3122 6.75375C66.7091 6.67447 63.7445 6.60399 63.7311 6.59518C63.7176 6.58638 63.7311 6.419 63.7512 6.2252L63.7983 5.87285L64.1344 5.86404C64.3226 5.85523 66.0301 5.88606 67.9325 5.93011L71.3945 6.00938L74.0768 5.84202C75.5557 5.74952 76.7993 5.65262 76.8531 5.6262C76.9741 5.55573 76.9607 5.42799 76.8262 5.38835C76.759 5.36633 73.8348 5.29145 70.3324 5.21217C66.8301 5.13289 63.9529 5.06242 63.9395 5.05361C63.8991 5.02718 64 4.36211 64.047 4.33128C64.0672 4.31806 65.7343 4.34009 67.751 4.37973L71.408 4.45901L74.0095 4.29604C75.4414 4.20355 76.6514 4.11986 76.7052 4.10665C76.8733 4.06261 76.8867 3.93928 76.7388 3.86C76.6313 3.80274 76.4766 3.78072 76.2078 3.78072C75.5624 3.78512 65.1696 3.56049 64.6453 3.53407L64.1546 3.50764L64.1949 3.3711C64.2151 3.29623 64.3092 3.12885 64.4033 2.99672L64.5714 2.75447L65.4318 2.7809C65.9024 2.79852 67.4216 2.83375 68.8064 2.86018L71.3273 2.91303L73.949 2.74567C75.3943 2.65317 76.6111 2.56067 76.6581 2.53865C76.7859 2.46818 76.7523 2.32724 76.5909 2.2832C76.5035 2.26117 74.0163 2.1951 71.0584 2.12904C68.1073 2.06737 65.6738 2.01011 65.6604 2.0013C65.6469 1.98809 65.7679 1.93083 65.936 1.86917C66.7158 1.56967 67.6636 1.4111 69.3509 1.29659C70.7492 1.19969 73.7743 1.12481 75.4481 1.14684C76.2279 1.15564 76.8733 1.16005 76.8733 1.16005C76.8733 1.15564 76.6649 1.04113 76.4027 0.904587C75.6162 0.477352 74.8834 0.287962 73.4785 0.147018C72.3021 0.0236928 64.1142 -0.0511886 62.5546 0.0413055ZM61.4589 4.05379C61.4387 4.08903 61.4186 4.07582 61.4186 4.02737C61.4118 3.97892 61.432 3.95249 61.4522 3.97011C61.4723 3.98332 61.4791 4.02296 61.4589 4.05379ZM61.0757 7.63464C59.6506 21.2401 58.6893 29.9037 58.2523 32.9825C57.6608 37.1359 57.5599 38.1533 57.5532 40.0076C57.5532 42.3244 57.8288 43.9408 58.528 45.7555C58.7767 46.3897 59.496 47.8432 59.7649 48.244C59.8254 48.3409 59.859 48.407 59.8321 48.3937C59.7918 48.3673 59.4892 47.9577 57.8692 45.7555C56.2222 43.5224 56.034 42.9146 56.034 39.9548C56.034 37.4971 56.2961 35.4974 57.244 30.745C57.9498 27.2302 58.5885 23.3895 59.5901 16.6198C60.0472 13.5631 61.0152 6.85505 61.2572 5.036C61.4925 3.33146 61.4118 4.41056 61.0757 7.63464ZM9.82448 53.0317C10.5303 53.547 10.9202 54.0755 11.1017 54.7538C11.4715 56.1412 10.5505 57.282 8.27161 58.273C7.70021 58.5241 6.69858 58.8808 6.57086 58.8808C6.42969 58.8808 6.94731 56.7843 7.24309 56.1324C7.65988 55.2251 9.2598 52.8026 9.4413 52.8026C9.47491 52.8026 9.64969 52.9083 9.82448 53.0317ZM7.92205 53.9566C7.7271 54.1856 6.75908 54.7935 6.38263 54.9256C5.502 55.2339 4.49365 55.2603 3.53235 54.9961C3.30379 54.9344 3.33068 54.93 4.20458 54.9036C5.58267 54.8639 6.24818 54.7142 7.29687 54.2077C7.53887 54.0932 7.79432 53.9566 7.86155 53.9082C8.04305 53.776 8.06322 53.7936 7.92205 53.9566ZM53.0425 71.1693C53.4257 78.6349 53.8626 87.3118 54.0576 91.1701C54.1651 93.4032 54.1651 94.4735 54.0643 94.5439C53.7215 94.7642 53.103 92.3902 52.7803 89.6241C52.4241 86.6203 52.4039 85.6469 52.4173 72.0062L52.4241 59.5195L52.5451 61.7437C52.6123 62.9682 52.8341 67.2097 53.0425 71.1693ZM3.87519 61.8627C3.59957 64.9546 3.82141 69.271 4.47348 73.3936C4.54743 73.8517 4.60793 74.2613 4.6012 74.2965C4.58776 74.4331 4.27181 73.4112 4.11047 72.7109C3.57268 70.3809 3.28362 67.7779 3.36429 65.95C3.41807 64.7256 3.57268 63.1091 3.73402 62.0653C3.80797 61.5984 3.86847 61.1756 3.86847 61.1227C3.86847 61.0699 3.88863 61.0346 3.9088 61.0522C3.92897 61.0655 3.91552 61.431 3.87519 61.8627ZM28.4723 84.7968C28.4723 84.8056 28.4185 84.8409 28.358 84.8717C28.2505 84.929 28.2437 84.9245 28.3311 84.8541C28.4185 84.7836 28.4723 84.7616 28.4723 84.7968ZM27.874 85.136C26.7446 85.8231 25.1246 86.4881 23.8473 86.7788C21.8172 87.2413 20.1567 87.3911 18.9265 87.2281L18.4896 87.1664L19.3971 87.162C21.2458 87.1532 23.2289 86.8229 25.1044 86.2195C25.9178 85.9596 27.4572 85.321 27.9345 85.0479C28.311 84.8321 28.2706 84.8937 27.874 85.136ZM54.7903 96.363C55.0592 96.5568 55.1668 97.0016 55.0189 97.2835C54.918 97.4773 54.6155 97.5742 54.3735 97.4994C53.9433 97.3628 53.708 96.7154 53.9971 96.4599C54.2525 96.2353 54.5618 96.1956 54.7903 96.363Z" fill="#C79B00"/>
</svg>
