<svg width="108" height="108" viewBox="0 0 108 108" fill="none" xmlns="http://www.w3.org/2000/svg">
<path d="M81.8246 0.076349C79.9749 0.210372 77.5772 0.61244 75.8112 1.08152C75.4154 1.18576 74.1442 1.55804 72.9949 1.90055C64.8122 4.35763 61.463 4.78948 43.7274 5.65318C41.2155 5.77231 37.5162 5.93612 35.5067 6.02547C31.3126 6.19672 30.7417 6.24884 30.1708 6.50199C29.3411 6.87428 28.6636 7.73798 28.4733 8.6538C28.3592 9.18989 27.8948 12.5553 27.7122 14.1785C27.0956 19.5245 27.1032 21.5572 27.7807 31.8993C27.9634 34.5872 28.0471 35.0265 28.519 35.6445C28.9377 36.1731 29.3487 36.4858 29.9653 36.7241C30.1708 36.7986 36.618 37.6176 48.2717 39.0472C61.2574 40.6405 66.4639 41.3032 67.0196 41.4372C69.5543 42.0701 71.8531 43.0976 72.8274 44.0507C73.3374 44.5421 73.4363 44.7878 73.5353 45.7334C73.6799 47.1704 73.4287 48.7415 72.835 50.1934L72.599 50.7667L73.0481 51.3102C73.2993 51.6081 73.5886 51.9729 73.7028 52.1218L73.9007 52.3824L73.6419 54.6161C72.7056 62.5235 71.8531 67.8844 71.0919 70.7659C69.973 74.9652 68.3821 83.4012 67.8493 87.9654C67.6742 89.462 67.6742 92.3212 67.8417 93.8624C68.2375 97.3694 69.2346 100.854 70.795 104.16C72.1347 107.012 72.7817 107.734 74.2051 107.965C75.3774 108.151 76.5344 107.622 78.7037 105.924C82.8369 102.678 85.6152 98.5607 87.6095 92.6935C90.2813 84.868 92.679 71.5774 93.5391 59.8579C93.8588 55.6064 93.973 50.4689 93.836 46.6641C93.7903 45.3388 93.7751 45.1675 93.6305 44.9739C93.5391 44.8548 93.4706 44.6984 93.4706 44.6314C93.4706 44.3708 93.7523 43.9464 94.2699 43.4103C94.7342 42.9264 95.2746 42.4796 97.5734 40.6629C100.04 38.7121 102.803 36.121 104.059 34.5797C106.814 31.1994 107.872 28.2807 107.986 23.7462C108.017 22.7038 107.994 21.6838 107.941 21.0658C107.065 11.3715 100.938 3.79175 91.796 1.08896C88.7437 0.180589 85.2499 -0.169359 81.8246 0.076349ZM83.1414 1.8931C83.5601 2.99506 84.1005 5.6234 84.2603 7.36569C84.3517 8.35597 84.3593 10.3514 84.2832 13.5233L84.2375 15.7644L83.9483 15.9208C83.4992 16.1665 82.9816 16.7324 82.7151 17.261C82.4868 17.7227 82.4716 17.7897 82.4716 18.6087C82.4716 19.3979 82.4868 19.5022 82.6847 19.8894C83.6057 21.7359 85.9197 22.2943 87.5639 21.0807C88.4773 20.4031 88.9797 19.1225 88.7513 18.0503C88.5458 17.0898 88.0358 16.375 87.2061 15.9059L86.7114 15.623L86.6733 12.4437C86.6352 9.175 86.5896 8.54211 86.2318 6.50944C86.0263 5.31068 85.6076 3.42692 85.3184 2.39196C85.1814 1.93033 85.09 1.53571 85.1129 1.52082C85.1281 1.50592 85.5696 1.52082 86.0872 1.56549C92.6486 2.07924 97.9616 4.7448 101.813 9.45049C104.302 12.4958 105.908 16.4792 106.38 20.8052C106.533 22.1826 106.487 24.9301 106.297 26.1289C105.916 28.5189 105.216 30.358 103.998 32.145C103.176 33.3512 102.422 34.2149 100.824 35.7785C99.2023 37.3644 98.1367 38.2803 95.5639 40.3129C93.6609 41.817 92.915 42.502 92.5572 43.0604C92.4126 43.2838 92.268 43.4699 92.2451 43.4774C92.2147 43.4774 91.7808 43.0381 91.2632 42.5094C90.7532 41.9733 90.3193 41.5489 90.3041 41.5638C90.2889 41.5787 90.4107 41.8914 90.5858 42.2563C91.1947 43.5369 91.3622 43.8943 91.8113 44.8548L92.268 45.8227L92.3517 47.9075C92.5116 51.958 92.2147 58.6815 91.5981 64.5487C90.5401 74.7419 88.4088 85.5903 86.1481 92.2467C84.1538 98.1512 81.3755 102.097 76.9149 105.373C75.8036 106.185 75.1871 106.49 74.639 106.49C73.855 106.49 73.5048 106.148 72.7132 104.592C70.1556 99.5658 68.9301 94.1826 69.2575 89.4322C69.5163 85.7317 71.0615 77.1468 72.462 71.5849C72.7513 70.4382 73.0862 68.964 73.2156 68.3088C73.7028 65.7326 74.4563 60.5652 75.0196 55.8893C75.1414 54.9214 75.2632 54.1322 75.286 54.1396C75.3165 54.1545 75.6362 54.5268 75.9939 54.9735C76.3517 55.4203 76.6485 55.7702 76.6485 55.7479C76.6485 55.7255 76.2147 54.2885 75.6894 52.5537L74.738 49.3967L74.8521 48.8606C75.1718 47.4087 75.1566 45.2569 74.8217 44.3262C74.3117 42.8966 72.4164 41.5861 69.3945 40.581C67.1338 39.829 67.8721 39.9332 48.7132 37.5952C38.9777 36.4039 30.9167 35.4137 30.7873 35.3913C30.1479 35.2573 29.5847 34.7361 29.5009 34.1851C29.3944 33.5373 28.9833 26.9851 28.8387 23.7462C28.6636 19.6734 28.8844 16.3601 29.7217 10.5748C30.0185 8.50489 30.1099 8.26662 30.7188 7.91667L31.0614 7.72309L35.834 7.50716C53.3411 6.73281 58.9587 6.35308 63.8607 5.60851C67.0196 5.13198 68.9987 4.65546 73.5277 3.30778C76.07 2.54832 77.5087 2.18348 78.9321 1.93777C80.0815 1.73674 82.4183 1.49103 82.8902 1.51337C82.9511 1.52082 83.0653 1.68462 83.1414 1.8931ZM87.3964 17.0972C87.8379 17.5067 88.1119 18.5938 87.914 19.1671C87.7922 19.5171 87.3964 19.9564 86.9625 20.2021C86.7799 20.3063 86.6048 20.3957 86.5819 20.3957C86.5515 20.3957 86.6505 20.2319 86.8027 20.0308C87.1757 19.5394 87.3051 19.1373 87.3051 18.5045C87.3051 17.9386 87.1604 17.5663 86.8027 17.1866C86.7037 17.0823 86.62 16.926 86.62 16.8366C86.62 16.6728 86.6276 16.6728 86.9093 16.7845C87.0615 16.8515 87.2822 16.993 87.3964 17.0972Z" fill="#C79B00"/>
<path d="M94.308 5.92122C94.308 5.99568 94.3461 6.34563 94.3841 6.69557C94.8104 10.3589 94.9626 18.8172 94.6886 23.4112C94.5668 25.496 94.3156 29.3305 94.1634 31.3409C94.0949 32.346 94.0416 33.1799 94.0568 33.1948C94.0644 33.2097 94.2091 33.1427 94.3689 33.0385L94.6581 32.8449L94.8256 31.4451C95.0844 29.3007 95.3508 26.5905 95.5031 24.528C95.6857 21.9593 95.6934 16.0623 95.5031 13.8062C95.2823 11.1332 94.9855 8.95162 94.5592 6.80726C94.3765 5.8691 94.308 5.62339 94.308 5.92122Z" fill="#C79B00"/>
<path d="M73.4061 7.64122C73.2539 7.91671 73.0636 8.24432 72.9951 8.3709C72.5917 9.04846 71.5945 11.3715 71.0693 12.8755C70.3005 15.0571 69.9428 16.442 69.5241 18.9066C68.8695 22.7411 68.3671 24.126 67.2786 25.1312C66.0607 26.248 64.2339 26.4714 60.3975 25.9874C58.9285 25.8013 57.3756 25.6896 52.4812 25.4216C46.4907 25.0865 46.3385 25.0865 43.2329 25.1312C38.3613 25.2056 36.5573 24.9823 34.6696 24.0813C33.406 23.4782 32.5763 22.6592 31.9522 21.4158C30.8485 19.2267 30.2623 16.4123 30.1482 12.8383L30.1025 11.2747L29.9655 12.8755C29.6762 16.3825 29.5849 18.2365 29.5849 20.9914C29.5773 23.8803 29.6306 25.0493 29.9579 28.6604C30.0644 29.8294 30.1938 31.3483 30.2471 32.0482C30.3613 33.4182 30.4526 33.7607 30.8789 34.349C31.0159 34.5351 31.229 34.751 31.3585 34.8329C31.7619 35.0712 34.3575 35.369 46.0493 36.5157C59.4232 37.8261 64.0512 38.3101 66.3424 38.6377C67.37 38.7866 70.0645 39.4418 71.2824 39.8364C74.4489 40.8714 75.8419 42.4499 76.3519 45.5994C76.4128 45.9419 76.4509 46.8577 76.4509 47.7587V49.3223L76.6944 48.3543C77.174 46.411 77.2882 44.9591 77.0674 43.5146C76.7782 41.6606 76.2529 40.3279 74.3272 36.5901C72.2035 32.4726 71.1683 29.7624 70.5289 26.7022C69.8514 23.4484 69.8742 21.2743 70.643 17.4472C71.1759 14.7593 72.4699 10.4557 73.5964 7.59654C73.6802 7.37317 73.741 7.17214 73.7258 7.15725C73.7106 7.14236 73.566 7.35828 73.4061 7.64122Z" fill="#C79B00"/>
<path d="M97.6954 8.92923C97.7106 9.2345 97.7639 11.2002 97.8172 13.2999C97.9237 17.4695 97.8628 20.6785 97.5812 27.1712C97.4975 29.0326 97.429 30.6707 97.429 30.8047V31.0504L97.7334 30.8419C97.9389 30.7005 98.0455 30.559 98.076 30.4101C98.1597 29.9038 98.4413 26.4415 98.5783 24.1929C98.7001 22.2868 98.7001 17.3652 98.5783 15.6676C98.4033 13.0616 98.0683 10.2546 97.7715 8.87711L97.6649 8.3708L97.6954 8.92923Z" fill="#C79B00"/>
<path d="M100.755 16.226C100.717 19.115 100.649 23.1133 100.595 25.1236C100.542 27.1265 100.504 28.7795 100.512 28.7869C100.512 28.7944 100.679 28.6604 100.877 28.4891L101.227 28.1764L101.364 26.3522C101.463 24.9747 101.494 23.5973 101.501 20.7307C101.501 16.8217 101.456 15.9133 101.151 13.3594C100.809 10.5524 100.816 10.5152 100.755 16.226Z" fill="#C79B00"/>
<path d="M103.671 14.6698C103.671 14.8932 103.617 17.0152 103.557 19.3904C103.496 21.7656 103.442 24.2599 103.442 24.9375V26.166L103.815 25.7863C104.143 25.4512 104.196 25.3544 104.257 24.9673C104.287 24.729 104.318 23.1356 104.318 21.438C104.318 18.9958 104.287 18.1098 104.181 17.1939C104.051 16.0547 103.77 14.3646 103.709 14.2976C103.686 14.2827 103.671 14.4465 103.671 14.6698Z" fill="#C79B00"/>
<path d="M103.762 26.7245L103.442 27.0894L103.45 28.1169C103.458 28.6828 103.48 29.4422 103.511 29.8145L103.557 30.4846L103.732 29.472C103.914 28.3477 104.158 26.4267 104.112 26.3895C104.097 26.3746 103.937 26.5235 103.762 26.7245Z" fill="#C79B00"/>
<path d="M100.763 29.6656L100.474 29.9038L100.481 31.944C100.489 33.9171 100.496 33.9692 100.595 33.3884C100.732 32.5843 101.098 29.5688 101.067 29.4869C101.052 29.4496 100.915 29.5315 100.763 29.6656Z" fill="#C79B00"/>
<path d="M97.5659 31.9588L97.3604 32.1226L97.3147 34.1329C97.2919 35.2349 97.2919 36.106 97.3147 36.0688C97.3528 35.9794 97.7791 33.0086 97.8552 32.2864C97.8856 32.0109 97.878 31.7875 97.8399 31.7875C97.8019 31.7875 97.6801 31.862 97.5659 31.9588Z" fill="#C79B00"/>
<path d="M94.2166 33.8352C93.9578 33.9767 93.9654 33.9544 93.8132 36.2923C93.7523 37.3124 93.6838 38.3697 93.6609 38.6377C93.6305 39.0994 93.6305 39.0845 93.7751 38.3995C93.8512 38.0048 94.0415 36.9029 94.1861 35.9424C94.3384 34.9893 94.4754 34.0958 94.4982 33.9618C94.5515 33.6938 94.5134 33.6789 94.2166 33.8352Z" fill="#C79B00"/>
<path d="M90.6618 44.9292C90.6314 46.4705 90.129 48.2128 89.4059 49.3148C88.8198 50.2082 87.9064 50.99 86.894 51.4517L86.3916 51.6825V53.6333C86.3916 57.2519 86.0491 60.7067 85.2042 65.5911C84.5876 69.1948 82.6314 79.2763 82.0148 82.0833C79.4877 93.5273 77.0367 99.7371 74.951 99.9679C73.9311 100.08 73.109 99.2084 71.8226 96.6397C71.4648 95.9323 71.168 95.3664 71.168 95.3888C71.168 95.4781 72.0129 97.8533 72.2565 98.449C72.8882 99.9753 74.0224 101.353 75.05 101.844C76.6789 102.619 78.3535 102.112 80.2184 100.288C82.502 98.0618 84.2755 94.7633 85.8055 89.9013C87.2746 85.2477 87.8302 82.8055 89.4287 73.9675C91.3545 63.3425 91.4687 61.7789 91.0424 51.4815C90.9054 48.3245 90.776 45.443 90.7379 45.0782L90.6771 44.408L90.6618 44.9292Z" fill="#C79B00"/>
<path d="M10.1594 0.471012C9.25358 0.686937 8.28688 1.27515 7.60943 2.01972C3.59039 6.44247 0.964315 12.749 0.111791 20.0234C-0.0176097 21.185 -0.0404451 23.6644 0.0737321 24.9376C0.522829 29.8294 2.39534 34.8255 5.50857 39.4567C6.40676 40.7895 6.65034 41.0724 7.21362 41.4819C8.18032 42.1818 9.15463 42.4722 10.3877 42.4201C11.3012 42.3754 11.2479 42.3903 13.3564 41.5415C15.0233 40.864 22.1404 38.5781 26.8064 37.2081C27.1718 37.1039 27.4002 36.9996 27.4002 36.9326C27.4002 36.8805 27.2631 36.0242 27.0957 35.034C26.2812 30.1943 25.8321 26.4789 25.6875 23.4485C25.5733 21.1477 26.1138 15.5486 27.0957 8.75808C27.2631 7.61144 27.4002 6.62116 27.4002 6.55415C27.4002 6.45736 26.9815 6.25632 25.7103 5.74257C24.7741 5.37028 22.4753 4.43957 20.5876 3.67266C18.7075 2.9132 16.1879 1.89314 14.9929 1.40917C13.7978 0.932645 12.6408 0.500795 12.4201 0.448675C11.9025 0.344435 10.6465 0.351881 10.1594 0.471012ZM11.872 3.32272C12.1917 3.60565 12.245 3.99283 12.0319 4.54381C11.8264 5.07246 11.3621 5.67556 10.3116 6.77008C9.2003 7.92416 8.93389 8.29645 8.22599 9.65901C6.30781 13.3893 4.89201 18.2588 4.54187 22.2944C4.52665 22.4582 4.51142 21.9742 4.50381 21.2147C4.46575 17.2685 5.08231 13.2627 6.19363 10.1951C7.06899 7.79758 8.75882 4.8193 9.80163 3.84392C10.6009 3.10679 11.3925 2.90576 11.872 3.32272ZM5.99573 31.3409C6.49049 32.6216 7.206 34.2 7.87584 35.5105C8.50001 36.7316 8.7512 37.3719 8.7512 37.7368C8.7512 37.8931 8.69792 37.841 8.44673 37.4464C7.40391 35.8009 6.31542 33.2619 5.82827 31.3632C5.55424 30.2538 5.56946 30.2538 5.99573 31.3409Z" fill="#C79B00"/>
</svg>
