<svg width="60" height="160" viewBox="0 0 60 160" fill="none" xmlns="http://www.w3.org/2000/svg">
<path d="M14.6132 0.139724C14.0028 0.6092 14.0028 1.32949 14.6132 3.46465C15.0745 5.09174 15.4081 5.88278 16.6785 8.38451C18.2328 11.4329 18.6089 12.6548 18.3463 13.7867C17.9418 15.5489 16.5933 17.1888 14.6913 18.2435C14.4003 18.4043 13.3641 18.8545 12.3847 19.2339C8.06955 20.9318 5.71327 22.1794 4.1022 23.6329C3.30021 24.3531 2.87438 24.9191 2.23563 26.1217C0.738112 28.9386 0 31.9034 0 35.1061C0 37.1126 0.141945 37.5885 0.943932 38.3667C1.44074 38.849 2.38467 39.4279 3.5841 40.0002C4.05252 40.2189 5.10291 40.7462 5.91199 41.1643C7.36693 41.9167 8.7154 42.5405 8.82186 42.5148C8.85025 42.5084 8.86444 42.5277 8.85734 42.5534C8.84315 42.5791 9.07736 42.7914 9.36834 43.0165C10.0994 43.576 10.9297 44.367 11.4265 44.9587C12.8105 46.6179 13.2221 47.9492 13.2221 50.7982C13.2221 52.1616 13.1441 52.9012 12.8744 54.1424C12.626 55.2679 12.4343 55.8145 11.6324 57.6153C10.4471 60.2906 9.96451 62.0978 10.0284 63.5963C10.0639 64.5095 10.1277 64.7153 10.8446 66.1687C11.7885 68.0981 12.044 69.3457 11.973 71.6996C11.9163 73.4488 11.7601 74.6193 10.7239 80.7032C9.35415 88.7422 9.14123 91.051 9.36834 95.3342C9.51739 98.151 10.0639 103.322 10.2484 103.585C10.2697 103.618 10.4968 103.682 10.7452 103.72C11.9304 103.907 16.6643 104.145 18.325 104.106C19.1483 104.081 19.2335 104.068 19.6735 103.868C20.291 103.592 20.9013 103.007 21.2846 102.312C21.895 101.206 22.115 100.093 22.2143 97.6816C22.2569 96.7426 22.3563 95.2827 22.4343 94.4338C22.6189 92.5045 22.626 90.813 22.4627 89.932C22.1505 88.2341 21.3698 86.9157 19.2761 84.5298C16.9482 81.8801 16.3662 81.1148 15.8907 80.118C14.819 77.8735 13.3215 71.2301 12.9099 66.9405C12.704 64.7281 13.286 59.5125 14.5209 52.6632C15.1597 49.0682 15.4365 47.8527 15.9759 46.2449C16.494 44.6757 17.516 42.3798 17.8424 42.0325C18.3109 41.5437 19.9432 39.8716 20.149 39.6722L20.3832 39.4471L20.2413 39.6722C18.7935 41.9746 17.445 44.8686 16.5295 47.6341C15.6352 50.3416 14.6203 54.554 14.1306 57.5638C13.6622 60.4385 13.4847 62.6959 13.4847 65.7829C13.4847 69.513 13.7615 71.6931 14.599 74.6901C15.2023 76.8574 15.8694 78.5423 16.7779 80.1887C17.6934 81.8544 18.3676 82.7226 20.0852 84.4655C21.9092 86.3241 22.6118 87.2695 23.0092 88.4206C23.1725 88.8966 23.1725 88.948 23.1654 91.4433C23.1583 92.916 23.0944 95.2506 23.0021 96.9999C22.9241 98.6591 22.8531 100.209 22.8602 100.441C22.8673 100.852 22.8744 100.839 23.0376 99.9968C23.286 98.7234 23.7402 95.8808 23.9815 94.0801C24.5209 90.1249 24.5493 88.7358 24.1164 87.5203C23.7331 86.4398 23.0589 85.4752 21.2917 83.4686C20.6175 82.7098 19.8793 81.8287 19.6451 81.5071C18.1902 79.507 16.9198 76.3622 16.1107 72.7414C15.1668 68.5097 15.2236 61.6476 16.2598 55.493C16.7779 52.3931 17.4947 48.9782 18.027 47.0745C18.4386 45.5889 18.978 44.0262 19.8581 41.7945C20.3691 40.4826 21.5117 38.386 22.4202 37.0676C23.4705 35.5498 26.132 29.7425 26.4443 28.3019C26.5933 27.6009 26.572 26.5076 26.4017 25.8452C26.1604 24.9384 25.8197 24.3982 24.6416 23.0733C22.555 20.7195 21.5117 19.0088 20.9297 17.0023C20.66 16.0633 20.5536 15.3238 20.2981 12.5905C20.0781 10.2238 19.9361 9.26558 19.6167 8.14655C19.3683 7.25262 19.1341 6.70597 18.2612 5.00813C16.7495 2.08194 15.9759 0.782843 15.4436 0.274779C15.1029 -0.0467807 14.8971 -0.0789367 14.6132 0.139724ZM17.2818 21.8578C19.3471 22.3595 20.9794 23.6457 21.9659 25.5365C23.7544 28.9836 23.0802 33.3954 20.2768 36.5595C18.7722 38.2445 16.9056 39.3507 14.8119 39.7816C14.0951 39.9295 12.4982 39.9295 11.7246 39.7816C8.60184 39.1835 5.52874 36.9969 4.3577 34.5337C4.22285 34.2507 4.02413 33.7363 3.92477 33.389C3.76863 32.8423 3.74024 32.6237 3.73314 31.7297C3.72605 30.2055 3.96025 29.3245 4.79063 27.8067C6.09652 25.4079 8.68701 23.3306 11.5827 22.3466C12.3421 22.0894 13.428 21.8257 14.088 21.7292C14.8261 21.6263 16.6288 21.6971 17.2818 21.8578ZM1.38396 34.8167C1.61817 35.5434 1.93045 36.1415 2.44854 36.8425C2.91696 37.4728 3.76863 38.4567 4.28673 38.9519C4.57062 39.2285 4.6203 39.3057 4.54223 39.3507C4.13059 39.5886 2.77502 39.132 1.80979 38.431C0.674237 37.6014 0.38325 36.9068 0.567778 35.4277C0.645848 34.7524 0.965223 33.2668 1.05039 33.1446C1.07878 33.1124 1.12136 33.3375 1.14975 33.6591C1.17104 33.9742 1.2775 34.4951 1.38396 34.8167ZM17.6011 42.2319C17.6011 42.3798 16.4088 43.1965 15.7417 43.5052C14.4003 44.1226 13.215 44.1355 11.2846 43.5567C10.6104 43.3509 8.94251 42.682 8.94251 42.6113C8.94251 42.592 9.24059 42.6627 9.60255 42.7656C11.5827 43.3316 13.7473 43.2994 16.0397 42.6692C16.4869 42.547 16.9979 42.3862 17.1753 42.3155C17.5373 42.174 17.6011 42.1611 17.6011 42.2319ZM16.5507 94.3438C17.2818 94.4853 18.1476 94.929 18.616 95.3985C18.9141 95.6943 19.3045 96.2989 19.4393 96.6719C20.1419 98.5305 18.9283 100.582 16.8133 101.109C15.6707 101.399 14.6061 101.232 13.6054 100.614C12.555 99.9646 11.9659 98.9292 11.973 97.7459C11.973 96.7297 12.3705 95.913 13.2079 95.212C14.1093 94.4531 15.3939 94.1251 16.5507 94.3438Z" fill="#C79B00"/>
<path d="M14.9966 95.9199C14.5921 96.0549 14.0882 96.473 13.854 96.8717C13.6907 97.1547 13.6624 97.2769 13.6624 97.7785C13.6624 98.2544 13.6907 98.4023 13.8256 98.6274C14.2159 99.3027 14.8405 99.6693 15.6709 99.7207C16.9058 99.7979 17.9562 98.9233 17.9562 97.8107C17.9562 97.5791 17.8994 97.2383 17.8355 97.0646C17.6723 96.6338 17.0548 96.0742 16.5793 95.9263C16.1535 95.7913 15.4012 95.7913 14.9966 95.9199Z" fill="#C79B00"/>
<path d="M47.7289 29.4473C47.3385 29.4795 46.7778 29.5695 46.4868 29.6403C43.5344 30.3799 38.2683 31.068 35.5216 31.0809C34.0667 31.0873 33.7828 31.023 32.2711 30.3413C31.7317 30.0905 31.1213 29.8332 30.9226 29.756C29.5103 29.248 26.7636 30.3863 26.2739 31.6918C26.1675 31.9619 26.1604 32.8044 26.2597 33.1195C26.4301 33.6791 27.2108 34.3672 28.8999 35.4476C29.4322 35.7885 30.0709 36.2194 30.3194 36.4059C31.4904 37.2741 32.3988 38.3545 32.7892 39.3385C33.2363 40.4575 33.4989 42.7342 33.5486 45.9433C33.5912 48.3036 33.5273 49.5963 33.3144 50.8954C33.0021 52.8311 32.2711 54.4325 28.7083 60.9602C26.3733 65.2433 26.1959 65.6035 24.8758 68.8126C22.8744 73.6618 22.264 74.7293 20.4897 76.5236C20.1632 76.8581 19.5954 77.3919 19.2406 77.707C18.8857 78.0221 18.5947 78.3115 18.5947 78.3501C18.5947 78.4787 19.4038 79.8872 19.8722 80.556C20.8304 81.9387 22.2498 83.4822 23.4705 84.4726L24.1661 85.0321L24.2157 84.7813C24.2441 84.6462 24.3364 83.9645 24.4145 83.2764C25.3868 74.9737 27.8495 67.1084 30.8091 62.8381C32.0866 60.9923 33.8822 59.3073 35.6991 58.2398C37.4592 57.2108 39.1483 56.587 43.6125 55.3329C44.8261 54.992 46.1959 54.5997 46.6643 54.4582C50.4258 53.3006 52.633 52.1301 54.6841 50.2136C57.594 47.4868 59.3257 43.8468 59.8722 39.2742C60.0426 37.8658 60.0426 35.3383 59.8722 34.5666C59.5954 33.2932 58.8218 31.5503 58.2186 30.8365C57.8708 30.4249 57.6153 30.3155 56.5933 30.1162C53.9318 29.6017 49.709 29.2866 47.7289 29.4473ZM50.5465 31.1838C51.8665 31.4346 53.215 31.9555 54.1235 32.5729C54.7338 32.9845 55.5997 33.7755 56.0894 34.3672C56.792 35.229 57.3527 36.3802 57.665 37.6471C57.8424 38.3674 57.885 40.0138 57.7431 40.8949C56.9837 45.5896 53.2434 49.4805 48.687 50.3101C47.4095 50.5416 45.479 50.6124 44.088 50.4709C40.8374 50.1558 37.9702 48.7666 37.1043 47.0945C36.6572 46.2199 36.352 44.7086 36.2881 42.985C36.2172 40.9785 36.4727 39.4993 37.0546 38.5217C38.3392 36.3866 40.6884 33.917 42.7324 32.5536C43.9673 31.7368 45.1597 31.3124 46.9127 31.0809C47.8566 30.9587 49.6451 31.0101 50.5465 31.1838ZM57.4805 32.708C57.8424 33.5376 58.1689 34.5023 58.3037 35.1389C58.4812 35.9943 58.836 38.1487 58.8289 38.3224C58.8218 38.451 58.8147 38.4574 58.7863 38.3545C58.1121 35.5956 57.4379 34.2 56.1746 32.933C55.9475 32.708 55.7771 32.5214 55.7913 32.5086C55.8055 32.5022 55.9404 32.4121 56.0894 32.3092C56.2313 32.2128 56.4726 31.9877 56.6146 31.814L56.8701 31.4925L57.0333 31.7819C57.1256 31.9426 57.3243 32.3542 57.4805 32.708ZM30.6458 33.0231C31.2136 33.2868 32.0014 33.6791 32.3917 33.8849C32.7892 34.0907 33.2647 34.2965 33.4563 34.3415C34.1661 34.5023 35.8481 34.2772 37.0759 33.8591C37.3456 33.7691 37.5656 33.6919 37.5727 33.6919C37.5798 33.6919 37.4024 33.8656 37.1824 34.0714C36.4797 34.7402 36.0823 35.647 35.5713 37.7114C35.0958 39.6408 34.89 41.165 34.7977 43.4673C34.7338 45.0751 34.6771 44.7664 34.528 41.956C34.379 38.9912 34.159 38.0008 33.435 36.9976C32.9169 36.2644 32.3563 35.8785 30.8729 35.2033C29.6735 34.663 29.056 34.2965 28.6444 33.8784C28.2541 33.4861 28.2257 33.2803 28.5238 33.0231C28.6799 32.888 29.4322 32.5472 29.5883 32.5343C29.6025 32.5343 30.0851 32.753 30.6458 33.0231ZM58.8857 38.7533C58.8644 38.8176 58.8502 38.779 58.8502 38.6761C58.8502 38.5668 58.8644 38.5217 58.8857 38.5603C58.8999 38.6054 58.8999 38.6954 58.8857 38.7533ZM35.6991 49.6734C36.8204 51.1462 40.6387 52.5482 44.1306 52.7668L44.8687 52.8118L44.0312 53.0305C41.3697 53.7251 38.6515 54.7476 36.3591 55.9181C35.2945 56.4583 34.0099 57.1786 33.4918 57.5259C33.0873 57.7896 33.0376 57.796 33.1724 57.5645C33.357 57.2429 33.9035 55.9181 34.1235 55.2686C34.8119 53.2363 35.1313 51.4613 35.1313 49.6477L35.1384 48.7731L35.3087 49.0818C35.4081 49.2554 35.5784 49.5191 35.6991 49.6734Z" fill="#C79B00"/>
<path d="M22.7895 101C22.7895 101.071 22.8108 101.09 22.8321 101.038C22.8534 100.993 22.8463 100.936 22.825 100.916C22.8037 100.891 22.7824 100.929 22.7895 101Z" fill="#C79B00"/>
<path d="M20.6315 104.64C19.9856 105.328 19.354 106.312 18.9991 107.167C18.4029 108.601 18.3462 109.354 18.4455 114.82C18.7365 130.783 18.7152 136.095 18.3745 140.063C18.19 142.23 17.1893 149.954 16.3589 155.62C16.1389 157.086 15.9757 158.289 15.9899 158.302C16.0041 158.315 16.2596 157.569 16.5577 156.636C18.3816 150.977 19.4746 146.693 19.943 143.401C20.7947 137.317 20.9295 130.062 20.2553 125.818C20.1985 125.425 20.0353 124.499 19.9075 123.76C19.2617 120.12 19.0914 118.525 19.0417 115.74C18.992 113 19.0985 111.573 19.5243 109.322C19.723 108.254 20.234 106.415 20.6457 105.302C20.8444 104.775 20.9934 104.331 20.9792 104.318C20.965 104.312 20.8089 104.453 20.6315 104.64Z" fill="#C79B00"/>
<path d="M10.6174 105.316C10.4826 106.525 10.149 111.374 9.97157 114.724C9.74446 119.149 9.69477 121.194 9.69477 125.947C9.68768 132.507 9.75865 133.767 10.5039 140.288C10.9936 144.565 11.7814 151.845 12.2072 155.981C12.4911 158.669 12.5124 158.823 12.6898 159.125C12.7963 159.299 13.0163 159.569 13.1795 159.723C13.435 159.955 13.5202 160 13.7544 160C14.2015 160 14.2583 159.897 14.5635 158.437C15.4577 154.148 16.3378 148.739 16.7423 144.983C17.5088 137.98 17.743 128.899 17.3172 122.828C16.9836 118.062 16.9198 112.01 17.1753 110.094C17.3456 108.833 18.105 107.161 19.1696 105.701L19.4393 105.335H19.2122C19.0844 105.335 18.7225 105.361 18.396 105.399C18.0766 105.431 17.1327 105.489 16.3023 105.528C14.3222 105.624 13.4066 105.56 11.8736 105.213C11.242 105.065 10.7097 104.949 10.6884 104.949C10.6742 104.949 10.6387 105.116 10.6174 105.316Z" fill="#C79B00"/>
</svg>
